<svg width="16" height="10" viewBox="0 0 16 10" fill="none" xmlns="http://www.w3.org/2000/svg"><path d="M10.165.332L8.638.293 6.035.228c-.7-.018-1.403-.063-2.08.115a4.214 4.214 0 00-1.84 1.028 4.208 4.208 0 00-1.097 1.802C.801 3.875.788 4.64.941 5.374c.15.728.5 1.397.967 1.982.847 1.058 2.174 1.688 3.49 1.722.45.013.9.023 1.351.034l2.603.066 2.39.06c.561.014 1.133.059 1.679-.07.693-.164 1.347-.56 1.782-1.116.125-.16.243-.323.341-.503.095-.175.17-.364.235-.553.118-.345.17-.721.164-1.09a3.59 3.59 0 00-.694-2.069 4.267 4.267 0 00-.405-.478 4.223 4.223 0 00-.49-.406 3.602 3.602 0 00-1-.497c-.567-.181-1.15-.169-1.728-.183l-2.374-.06-2.617-.065-1.405-.036a2.46 2.46 0 00-1.724.635c-.584.527-.85 1.352-.73 2.148.123.8.62 1.537 1.344 1.94.418.233.867.33 1.33.341l2.064.052a194634.74 194634.74 0 012.828.07c.313.009.604-.259.582-.581-.021-.324-.278-.604-.611-.612l-.517-.013-1.234-.03a72744.966 72744.966 0 00-3.25-.083 2.3 2.3 0 01-.24-.02l.152.024a2.078 2.078 0 01-.493-.14c.048.022.097.042.145.063a2.108 2.108 0 01-.453-.267l.13.1a2.26 2.26 0 01-.371-.37l.1.128a2.176 2.176 0 01-.268-.452c.022.048.042.097.063.145a2.042 2.042 0 01-.139-.493l.023.152a2.08 2.08 0 01-.012-.478l-.015.151c.017-.168.056-.33.114-.486l-.055.142c.062-.158.143-.306.245-.44a5.33 5.33 0 01-.094.124c.102-.132.22-.25.352-.353l-.124.094c.136-.1.282-.182.44-.245-.047.02-.095.037-.142.056.157-.06.318-.098.486-.115l-.151.016c.295-.028.603 0 .9.007l1.76.045 2.147.053 1.818.046c.257.007.516.012.774.02.125.003.247.014.371.033l-.152-.023c.246.04.487.107.72.206-.048-.021-.097-.041-.145-.063.238.103.464.236.671.395a6.234 6.234 0 01-.128-.1c.21.163.4.352.564.564a6.256 6.256 0 00-.1-.13c.159.21.29.434.394.673l-.063-.145c.099.232.167.473.206.72l-.023-.153c.037.247.043.495.019.74l.015-.151a2.844 2.844 0 01-.17.71l.056-.142a2.818 2.818 0 01-.361.653 5.3 5.3 0 01.093-.124 2.742 2.742 0 01-.536.537l.124-.094c-.2.149-.42.27-.653.361l.142-.055a2.84 2.84 0 01-.71.17l.15-.016c-.327.032-.667.007-.998-.002l-1.777-.044L7.94 7.95 6.1 7.905c-.282-.007-.567-.008-.85-.023-.13-.008-.26-.02-.39-.04l.153.022a4.104 4.104 0 01-.944-.27c.048.022.097.042.145.063a4.142 4.142 0 01-.906-.531c.043.032.087.066.129.1a4.207 4.207 0 01-.74-.74l.1.128a4.143 4.143 0 01-.533-.906c.022.048.042.097.063.145a4.104 4.104 0 01-.27-.944l.024.153a3.971 3.971 0 01-.025-1l-.016.151c.036-.32.11-.633.223-.931-.02.047-.037.095-.056.142a3.64 3.64 0 01.487-.881c-.03.041-.062.084-.094.124.201-.266.438-.502.705-.704-.042.03-.084.062-.125.094.27-.202.565-.366.881-.487l-.142.055c.299-.113.61-.187.932-.222l-.152.015c.278-.029.557-.019.837-.01l1.154.028 1.504.038 1.337.034c.22.005.439.015.658.016h.01c.313.008.604-.26.583-.581-.028-.323-.284-.603-.618-.611z" fill="#1F2032"/></svg>