<svg width="122" height="20" viewBox="0 0 122 20" fill="none" xmlns="http://www.w3.org/2000/svg"><path fill-rule="evenodd" clip-rule="evenodd" d="M0 9.768v9.158a.998.998 0 00.995.998h9.162a.7.7 0 00.495-1.2L1.2 9.268a.704.704 0 00-1.2.5zM15.269.952a.708.708 0 01.5 1.203L12.296 5.62a1.143 1.143 0 00-.342.83v4.76a.704.704 0 01-1.2.5L1.2 2.155A.705.705 0 011.696.952H15.27zM12.95 19.924h5.038a.999.999 0 00.995-.998V7.774a.704.704 0 00-1.2-.5l-5.472 5.472a1.143 1.143 0 00-.342.828v5.359a.998.998 0 00.982.991zm108.539-4.138a3.082 3.082 0 01-1.136.575 5.18 5.18 0 01-1.415.191c-1.245 0-2.21-.342-2.89-.978-.681-.636-1.026-1.6-1.026-2.848V7.253h-2.052v-.506l4.189-4.2h.534V5.14h3.036v2.123h-3.036v5.4c-.033.457.112.909.403 1.262a1.513 1.513 0 001.17.438 2.333 2.333 0 001.487-.469l.742 1.891h-.006zm-24.212-1.173a3.42 3.42 0 001.772-.455 2.473 2.473 0 001.094-1.31v-1.313h-2.736c-1.53 0-2.295.503-2.295 1.508a1.368 1.368 0 00.575 1.15 2.62 2.62 0 001.594.424l-.004-.004zm.36-9.688c1.67 0 2.949.4 3.836 1.2.887.8 1.328 2.009 1.324 3.625v6.652h-2.507v-1.368a3.1 3.1 0 01-1.392 1.139 5.472 5.472 0 01-2.178.393 5.322 5.322 0 01-2.23-.438 3.42 3.42 0 01-1.477-1.21 3.057 3.057 0 01-.52-1.755 2.997 2.997 0 011.135-2.452c.76-.615 1.953-.923 3.58-.923h2.931v-.171a2.332 2.332 0 00-.71-1.83c-.473-.424-1.18-.636-2.114-.636-.639 0-1.274.101-1.881.298-.569.174-1.1.455-1.563.827l-1.026-1.932a6.446 6.446 0 012.148-1.043 9.575 9.575 0 012.653-.342l-.01-.034zM76.854 16.552a10.23 10.23 0 01-2.699-.362 6.713 6.713 0 01-2.103-.913l1.026-2.018c.569.364 1.189.64 1.84.817a7.636 7.636 0 002.113.308c1.596 0 2.394-.418 2.394-1.255a.835.835 0 00-.605-.827 10.206 10.206 0 00-1.946-.448 16.58 16.58 0 01-2.284-.486 3.54 3.54 0 01-1.529-.968 2.709 2.709 0 01-.646-1.925 3.017 3.017 0 011.347-2.579c.898-.645 2.114-.967 3.646-.967.785.001 1.569.09 2.335.263a6.56 6.56 0 011.912.715L80.63 7.924a6.268 6.268 0 00-3.249-.851 3.614 3.614 0 00-1.775.342 1.026 1.026 0 00-.605.923.92.92 0 00.646.903c.65.238 1.323.405 2.008.5.754.111 1.5.274 2.233.488a3.47 3.47 0 011.498.937c.445.516.67 1.187.626 1.867a2.961 2.961 0 01-1.368 2.551c-.912.637-2.166.956-3.762.958l-.027.01zm-9.836-9.838c.764-1.19 2.11-1.785 4.036-1.785v2.527a3.469 3.469 0 00-.616-.062 3.204 3.204 0 00-2.421.903c-.581.602-.872 1.47-.872 2.602v5.503h-2.65V5.055h2.53v1.659h-.007zm-10.33.342a3.208 3.208 0 00-2.158.755 3.17 3.17 0 00-1.074 2.008h6.44a3.129 3.129 0 00-1.044-1.997 3.16 3.16 0 00-2.165-.766zm5.734 3.74c0 .186 0 .445-.04.787H53.49a3.078 3.078 0 001.224 1.987 3.99 3.99 0 002.452.732 4.135 4.135 0 003.078-1.231l1.426 1.635a4.823 4.823 0 01-1.935 1.367 7.638 7.638 0 01-5.927-.277 5.373 5.373 0 01-2.202-2.072 5.854 5.854 0 01-.773-3.006 5.94 5.94 0 01.752-2.985A5.35 5.35 0 0153.68 5.66a6.108 6.108 0 013.02-.742 5.933 5.933 0 012.961.732 5.195 5.195 0 012.052 2.052c.504.946.756 2.006.732 3.078l-.02.017zM50.42 5.06l-4.48 11.346h-2.735L38.725 5.06h2.763l3.14 8.415 3.245-8.415h2.547zM35.962 3.188a1.71 1.71 0 01-1.21-.455 1.566 1.566 0 010-2.274 1.71 1.71 0 011.21-.458c.444-.013.877.143 1.21.437a1.407 1.407 0 01.49 1.095 1.615 1.615 0 01-1.04 1.543c-.21.082-.435.12-.66.112zm-1.337 1.87h2.653v11.347h-2.653V5.055v.004zm-6.194 1.66c.764-1.191 2.11-1.786 4.036-1.786v2.527a3.467 3.467 0 00-.616-.061 3.204 3.204 0 00-2.421.902c-.581.602-.872 1.47-.872 2.603v5.502h-2.657V5.055h2.53v1.662zm62.684 9.072a3.078 3.078 0 01-1.139.574 5.11 5.11 0 01-1.412.192c-1.245 0-2.21-.342-2.89-.978-.68-.636-1.026-1.6-1.026-2.85v-5.47h-2.052v-.51l4.19-4.186h.53v2.592h3.04v2.124h-3.04v5.386c-.035.457.108.91.4 1.265a1.504 1.504 0 001.166.438 2.336 2.336 0 001.487-.469l.746 1.892zm16.644-9.073c.766-1.19 2.112-1.785 4.038-1.785v2.527a3.499 3.499 0 00-.615-.061 3.215 3.215 0 00-2.425.902c-.579.602-.869 1.47-.869 2.603v5.502h-2.657V5.055h2.528v1.662z" fill="#F7F7FA"/></svg>